<svg width="545" height="318" viewBox="0 0 545 318" fill="none" xmlns="http://www.w3.org/2000/svg">
<path d="M236.135 86.3608C269.385 60.3608 300.135 41.8607 339.135 25.3607C378.135 8.61074 425.885 -5.88926 466.635 6.86074C507.385 19.6107 541.135 59.8607 543.885 101.111C546.385 142.361 517.885 184.611 486.135 205.361C454.385 226.111 419.385 225.611 393.135 243.361C366.635 260.861 348.885 297.111 332.385 299.361C316.135 301.861 301.385 270.611 267.885 244.861C234.635 219.361 183.135 199.111 175.135 172.361C167.135 145.611 202.885 112.361 236.135 86.3608Z" fill="#AACEFA"/>
<path d="M167.6 47.6C181.4 69.4 186.2 92.4 199 112C211.8 131.4 232.6 147.2 235.2 164.4C237.8 181.8 222 200.4 204.2 211.4C186.6 222.4 166.8 225.6 150.6 249.2C134.4 272.8 121.6 316.8 108.6 317.4C95.6 318.2 82.2 275.4 63.2 253.4C44.2 231.4 19.6 230.2 8.4 218.6C-2.6 207 -0.199998 185 6.8 167C13.8 149.2 25.4 135.2 30.2 112.6C35 90 32.8 58.8 44.8 36.2C56.8 13.4 83 -0.399962 107.2 2.60004C131.4 5.80004 154 26 167.6 47.6Z" fill="#4494F3"/>
<path d="M153.282 105.731C175.588 102.247 190.561 104.736 200.645 86.5657C210.423 68.1469 215.617 29.3182 233.035 11.895C250.452 -5.77704 280.398 -2.04351 299.649 11.895C318.9 25.5846 327.456 49.7282 344.873 70.8848C362.29 91.7926 388.569 109.962 384.597 126.141C380.625 142.569 346.401 156.756 331.428 181.646C316.455 206.288 321.344 241.632 306.066 264.033C290.787 286.434 255.647 295.644 218.368 298.879C180.783 302.115 141.059 299.128 120.28 279.465C99.1959 259.802 97.0569 223.462 92.1678 195.585C87.2787 167.459 79.6395 147.796 90.6399 133.359C101.64 118.674 130.975 109.465 153.282 105.731Z" fill="#1976D2"/>
</svg>
