<svg width="618" height="404" viewBox="0 0 618 404" fill="none" xmlns="http://www.w3.org/2000/svg">
<path d="M501.072 137.259C537.322 168.009 597.072 170.509 612.822 191.009C628.572 211.509 600.322 249.759 571.322 276.009C542.072 302.259 512.072 316.009 484.072 319.509C455.822 323.009 429.572 316.259 409.322 304.009C389.322 292.009 375.072 274.259 342.572 251.009C309.822 228.009 258.822 199.259 251.072 167.009C243.322 134.759 278.822 98.7593 317.322 68.2593C355.822 37.5093 397.572 12.5093 424.572 29.5093C451.822 46.7593 464.822 106.259 501.072 137.259Z" fill="#AACEFA"/>
<path d="M278.931 50.6C312.104 70.6814 353.347 80.8493 377.106 109.065C401.09 137.535 407.814 183.798 389.658 216.081C371.727 248.364 329.139 266.412 301.121 293.611C273.103 320.555 259.655 356.397 234.775 378.004C210.119 399.61 174.031 406.982 146.462 392.493C119.116 378.258 100.064 342.162 73.839 311.404C47.39 280.647 13.7684 254.973 3.45773 221.419C-6.62876 187.611 6.3716 145.669 29.2343 116.691C51.8729 87.7125 84.1497 71.9524 113.288 49.5832C142.427 27.4682 168.652 -0.747454 194.429 0.0151319C220.205 0.777718 245.533 30.5186 278.931 50.6Z" fill="#4494F3"/>
<path d="M417.46 117.519C431.952 133.253 433.518 163.378 447.618 186.788C461.523 210.005 487.96 226.507 496.577 247.998C505.39 269.296 496.381 295.584 478.756 312.661C460.935 329.739 434.693 337.606 411.389 356.218C388.085 374.83 368.11 404.38 348.134 403.996C328.159 403.804 308.184 373.871 286.055 354.683C263.73 335.495 239.055 327.052 222.996 310.167C206.742 293.281 199.104 268.145 200.083 243.584C201.258 219.215 211.246 195.23 229.85 182.374C248.455 169.518 275.48 167.6 296.434 155.511C317.584 143.423 332.664 121.165 354.01 110.803C375.355 100.25 402.968 101.593 417.46 117.519Z" fill="#1976D2"/>
</svg>
