<svg width="659" height="336" viewBox="0 0 659 336" fill="none" xmlns="http://www.w3.org/2000/svg">
<path d="M78.878 48.5843C119.128 42.3343 167.128 71.8343 206.878 67.3343C246.878 62.5843 278.878 23.5843 300.128 22.5843C321.378 21.5843 332.128 58.0843 349.128 95.5843C366.128 132.834 389.128 170.584 388.128 211.084C386.878 251.584 361.628 294.834 324.128 316.584C286.378 338.334 236.378 338.584 186.628 331.334C136.628 323.834 86.878 308.834 51.628 275.584C16.128 242.334 -4.62202 190.584 0.877977 143.834C6.62797 97.0843 38.878 54.8343 78.878 48.5843Z" fill="#AACEFA"/>
<path d="M579.97 42.9438C602.77 59.7438 629.97 65.1438 644.77 81.1438C659.57 96.9438 661.97 123.344 652.97 144.544C643.97 165.744 623.77 181.744 611.57 202.144C599.37 222.544 595.17 247.344 581.37 272.544C567.57 297.744 543.97 323.144 518.37 326.544C492.97 329.944 465.57 310.944 444.57 289.944C423.57 268.944 409.17 245.744 390.37 221.944C371.77 198.144 349.17 173.944 342.57 145.944C335.97 117.944 345.77 86.3438 370.37 72.9438C394.97 59.5438 434.57 64.5438 461.97 50.3438C489.57 36.1438 504.97 2.7438 521.77 0.143804C538.77 -2.2562 557.17 25.9438 579.97 42.9438Z" fill="#4494F3"/>
<path d="M391.74 25.1312C416.058 37.9616 441.075 52.1324 454.197 74.7291C467.493 97.1343 469.067 127.774 463.644 155.158C458.395 182.542 446.149 206.671 435.302 233.48C424.28 260.29 414.658 289.972 395.589 298.207C376.694 306.633 348.352 293.419 320.71 292.27C293.068 290.93 265.951 301.654 241.458 296.866C216.79 292.079 194.397 272.163 180.926 246.502C167.28 220.842 162.556 189.819 170.254 163.584C177.952 137.157 198.246 115.901 213.291 93.1128C228.337 70.3246 238.309 46.1959 255.104 28.9612C272.074 11.5349 296.042 0.811025 319.836 1.00252C343.804 1.19402 367.422 12.4924 391.74 25.1312Z" fill="#1976D2"/>
</svg>
